<svg xmlns="http://www.w3.org/2000/svg" width="25.465" height="25.759" viewBox="0 0 25.465 25.759">
  <path id="Icon_awesome-coins" data-name="Icon awesome-coins" d="M0,20.391v2.148c0,1.776,4.277,3.22,9.549,3.22s9.549-1.444,9.549-3.22V20.391c-2.054,1.464-5.809,2.148-9.549,2.148S2.054,21.855,0,20.391ZM15.915,6.44c5.272,0,9.549-1.444,9.549-3.22S21.187,0,15.915,0,6.366,1.444,6.366,3.22,10.643,6.44,15.915,6.44ZM0,15.114v2.6c0,1.776,4.277,3.22,9.549,3.22S19.1,19.486,19.1,17.71v-2.6c-2.054,1.711-5.814,2.6-9.549,2.6S2.054,16.824,0,15.114Zm20.69.553c2.85-.558,4.775-1.595,4.775-2.787V10.731a12.126,12.126,0,0,1-4.775,1.736ZM9.549,8.05C4.277,8.05,0,9.851,0,12.075S4.277,16.1,9.549,16.1,19.1,14.3,19.1,12.075,14.821,8.05,9.549,8.05Zm10.907,2.833c2.984-.543,5.008-1.61,5.008-2.833V5.9C23.7,7.164,20.665,7.844,17.472,8A5.6,5.6,0,0,1,20.456,10.882Z" fill="#ffea06"/>
</svg>
