<svg xmlns="http://www.w3.org/2000/svg" width="53.173" height="51.859" viewBox="0 0 53.173 51.859">
  <path id="Icon_ionic-md-timer" data-name="Icon ionic-md-timer" d="M27.009,43.715a2.954,2.954,0,1,0,2.953-2.88A2.926,2.926,0,0,0,27.009,43.715Zm0-40.34V14.894h5.905V9.371A20.326,20.326,0,0,1,50.643,29.3a20.416,20.416,0,0,1-20.681,20.17A20.416,20.416,0,0,1,9.28,29.3a19.655,19.655,0,0,1,4.665-12.74l16.016,15.62,4.167-4.064L14.035,8.536V8.6A25.554,25.554,0,0,0,3.375,29.3c0,14.324,11.874,25.929,26.586,25.929,14.686,0,26.586-11.606,26.586-25.929S44.648,3.375,29.961,3.375ZM47.69,29.3a2.954,2.954,0,1,0-2.953,2.88A2.926,2.926,0,0,0,47.69,29.3Zm-35.457,0a2.954,2.954,0,1,0,2.953-2.88A2.926,2.926,0,0,0,12.233,29.3Z" transform="translate(-3.375 -3.375)" fill="#740414"/>
</svg>
