<svg xmlns="http://www.w3.org/2000/svg" width="34.688" height="32.226" viewBox="0 0 34.688 32.226">
  <path id="Icon_awesome-user-circle" data-name="Icon awesome-user-circle" d="M17.344.563C7.763.563,0,7.774,0,16.676S7.763,32.789,17.344,32.789s17.344-7.212,17.344-16.113S26.925.563,17.344.563Zm0,6.237A5.948,5.948,0,0,1,23.5,12.517a5.948,5.948,0,0,1-6.154,5.718,5.948,5.948,0,0,1-6.154-5.718A5.948,5.948,0,0,1,17.344,6.8Zm0,22.351A13.834,13.834,0,0,1,7.1,24.719a7.888,7.888,0,0,1,6.889-3.885,1.832,1.832,0,0,1,.5.071,9.349,9.349,0,0,0,5.721,0,1.832,1.832,0,0,1,.5-.071,7.888,7.888,0,0,1,6.889,3.885A13.834,13.834,0,0,1,17.344,29.15Z" transform="translate(0 -0.563)"/>
</svg>
